name C:\Users\u0101727\Documents\MyRepositories\upper-imu-dc\Results\main_tracking\Case_55\kinematics.mot
datacolumns 10
datarows 33
range 2.04000000 2.36000000
endheader 
time	clav_prot	clav_elev	scapula_abduction	scapula_elevation	scapula_upward_rot	scapula_winging	plane_elv	shoulder_elv	axial_rot	
          2.04000000	        -21.46679345	          8.17840223	         -7.72922588	          2.65440507	         24.07750466	          0.25114774	          7.28648977	          7.78486636	         21.82550831	
          2.05000000	        -21.50955457	          7.88365154	         -7.95570238	          2.52539203	         23.68741532	          0.37385959	          6.50035097	          8.04170765	         22.23846017	
          2.06000000	        -21.53652352	          7.58508079	         -8.15197315	          2.39512179	         23.29604811	          0.49844767	          5.70713395	          8.30170491	         22.64971170	
          2.07000000	        -21.54472976	          7.28104472	         -8.31041890	          2.26196107	         22.90578343	          0.62415006	          4.90780410	          8.56378353	         23.05941747	
          2.08000000	        -21.52998185	          6.97093134	         -8.42204120	          2.12518595	         22.51862829	          0.75027852	          4.10357861	          8.82711117	         23.46773320	
          2.09000000	        -21.48926264	          6.65487869	         -8.48063261	          1.98463889	         22.13621120	          0.87621817	          3.29577854	          9.09098647	         23.87494974	
          2.10000000	        -21.42274623	          6.33353668	         -8.48617572	          1.84041284	         21.75989402	          1.00142283	          2.48580138	          9.35474140	         24.28151969	
          2.11000000	        -21.33352620	          6.00791470	         -8.44424896	          1.69276561	         21.39074839	          1.12544989	          1.67507681	          9.61775837	         24.68803504	
          2.12000000	        -21.22615453	          5.67915987	         -8.36323858	          1.54203533	         21.02959780	          1.24796624	          0.86504092	          9.87948754	         25.09521243	
          2.13000000	        -21.10537162	          5.34833071	         -8.25187612	          1.38852268	         20.67712454	          1.36872754	          0.05714325	         10.13942265	         25.50387611	
          2.14000000	        -20.97530325	          5.01633655	         -8.11779629	          1.23250059	         20.33384029	          1.48758160	         -0.74716947	         10.39710013	         25.91490809	
          2.15000000	        -20.83923009	          4.68394068	         -7.96714449	          1.07423399	         20.00006960	          1.60446222	         -1.54647944	         10.65209134	         26.32922013	
          2.16000000	        -20.69969292	          4.35174937	         -7.80473215	          0.91395144	         19.67600444	          1.71936689	         -2.33939656	         10.90398225	         26.74772997	
          2.17000000	        -20.55862916	          4.02024593	         -7.63428183	          0.75185447	         19.36173420	          1.83233981	         -3.12456494	         11.15237573	         27.17132999	
          2.18000000	        -20.41749809	          3.68984365	         -7.45867245	          0.58814753	         19.05725293	          1.94346036	         -3.90067696	         11.39690821	         27.60085739	
          2.19000000	        -20.27740433	          3.36091365	         -7.28015803	          0.42304534	         18.76248305	          2.05282995	         -4.66647689	         11.63725203	         28.03706552	
          2.20000000	        -20.13919509	          3.03380152	         -7.10053500	          0.25677362	         18.47729809	          2.16056117	         -5.42075873	         11.87310584	         28.48059226	
          2.21000000	        -20.00352416	          2.70884784	         -6.92126170	          0.08957905	         18.20152846	          2.26677134	         -6.16236442	         12.10418566	         28.93192473	
          2.22000000	        -19.87089789	          2.38640562	         -6.74354450	         -0.07826163	         17.93496611	          2.37157651	         -6.89018116	         12.33021786	         29.39136597	
          2.23000000	        -19.74171733	          2.06684949	         -6.56840691	         -0.24644103	         17.67737912	          2.47508433	         -7.60313618	         12.55093500	         29.85900397	
          2.24000000	        -19.61631151	          1.75058001	         -6.39674042	         -0.41462390	         17.42852780	          2.57738743	         -8.30019454	         12.76607761	         30.33468695	
          2.25000000	        -19.49495817	          1.43802483	         -6.22933707	         -0.58244959	         17.18817238	          2.67855971	         -8.98035914	         12.97539521	         30.81800605	
          2.26000000	        -19.37790103	          1.12963548	         -6.06691311	         -0.74953812	         16.95608313	          2.77865297	         -9.64266998	         13.17864720	         31.30828551	
          2.27000000	        -19.26536148	          0.82588471	         -5.91012542	         -0.91549462	         16.73204705	          2.87769481	        -10.28620776	         13.37560925	         31.80458337	
          2.28000000	        -19.15754314	          0.52725804	         -5.75957780	         -1.07991612	         16.51586760	          2.97568925	        -10.91009820	         13.56607615	         32.30570495	
          2.29000000	        -19.05463285	          0.23424449	         -5.61582254	         -1.24239800	         16.30736216	          3.07261844	        -11.51351731	         13.74986191	         32.81023052	
          2.30000000	        -18.95680000	         -0.05267257	         -5.47935766	         -1.40254103	         16.10636200	          3.16844390	        -12.09570082	         13.92679879	         33.31655908	
          2.31000000	        -18.86419110	         -0.33302467	         -5.35061998	         -1.55995661	         15.91270600	          3.26310952	        -12.65595786	         14.09673515	         33.82296603	
          2.32000000	        -18.77692575	         -0.60636711	         -5.22997902	         -1.71427252	         15.72623719	          3.35654418	        -13.19368730	         14.25953448	         34.32767180	
          2.33000000	        -18.69509317	         -0.87228590	         -5.11773209	         -1.86513751	         15.54680057	          3.44866415	        -13.70839822	         14.41507797	         34.82891394	
          2.34000000	        -18.61874776	         -1.13040662	         -5.01409907	         -2.01222659	         15.37423752	          3.53937704	        -14.19972905	         14.56326449	         35.32501670	
          2.35000000	        -18.54790727	         -1.38040597	         -4.91921896	         -2.15524931	         15.20838402	          3.62858594	        -14.66746662	         14.70400707	         35.81445682	
          2.36000000	        -18.48255031	         -1.62201454	         -4.83315319	         -2.29394914	         15.04905992	          3.71619444	        -15.11156704	         14.83723619	         36.29591473	
